<svg xmlns="http://www.w3.org/2000/svg" xmlns:xlink="http://www.w3.org/1999/xlink" width="141.044" height="107.948" viewBox="0 0 141.044 107.948"><defs><filter id="a" x="0" y="0" width="141.044" height="107.948" filterUnits="userSpaceOnUse"><feOffset dy="10" input="SourceAlpha"/><feGaussianBlur stdDeviation="15" result="b"/><feFlood flood-opacity="0.149"/><feComposite operator="in" in2="b"/><feComposite in="SourceGraphic"/></filter></defs><g transform="matrix(1, 0, 0, 1, 0, 0)" filter="url(#a)"><path d="M-52.164-17.948h15.68V-14.5h-6.58V0h-2.324V-14.5h-6.776ZM-22.988-3.416q.616,0,.616-.448a.494.494,0,0,0-.252-.42L-33.292-13.44a2.8,2.8,0,0,1-1.05-1.064,2.676,2.676,0,0,1-.35-1.288,2.085,2.085,0,0,1,.644-1.5,2.673,2.673,0,0,1,1.988-.658h12.432V-14.5h-11.76q-.644,0-.644.448,0,.2.28.392l10.668,9.156a2.8,2.8,0,0,1,1.05,1.064,2.676,2.676,0,0,1,.35,1.288,2.085,2.085,0,0,1-.644,1.5A2.673,2.673,0,0,1-22.316,0H-34.552V-3.416Zm7.5-6.188q.028,1.036,1.176,1.036H-3v-9.38H-1.12V-3.416Q-1.176,0-3.472,0H-17.3l1.848-3.416H-4.144A1.024,1.024,0,0,0-2.968-4.48V-6.692H-14.98q-2.324,0-2.352-3.444v-7.812h1.848Z" transform="translate(97.16 52.95)" fill="#fff"/></g></svg>